<?xml version="1.0" encoding="utf-8"?>
<svg width="419px" height="417px" viewBox="0 0 419 417" version="1.1" xmlns:xlink="http://www.w3.org/1999/xlink" xmlns="http://www.w3.org/2000/svg">
  <desc>Created with Lunacy</desc>
  <g id="rollinbank2">
    <path d="M40.999 0L378.001 0Q379.007 0 380.013 0.0493851Q381.018 0.0987702 382.02 0.197421Q383.021 0.296073 384.017 0.443752Q385.012 0.591432 385.999 0.787784Q386.987 0.984137 387.963 1.22869Q388.939 1.47324 389.902 1.7654Q390.865 2.05757 391.813 2.39663Q392.761 2.7357 393.691 3.12086Q394.62 3.50602 395.53 3.93634Q396.44 4.36666 397.328 4.84111Q398.215 5.31556 399.079 5.83298Q399.942 6.35041 400.779 6.90958Q401.616 7.46874 402.424 8.06829Q403.232 8.66785 404.011 9.30634Q404.789 9.94484 405.534 10.6207Q406.28 11.2966 406.992 12.0083Q407.703 12.72 408.379 13.4658Q409.055 14.2115 409.694 14.9895Q410.332 15.7675 410.932 16.5759Q411.531 17.3843 412.09 18.2212Q412.65 19.058 413.167 19.9213Q413.684 20.7846 414.159 21.6722Q414.633 22.5598 415.064 23.4697Q415.494 24.3795 415.879 25.3094Q416.264 26.2392 416.603 27.1868Q416.942 28.1345 417.235 29.0976Q417.527 30.0607 417.771 31.0371Q418.016 32.0134 418.212 33.0005Q418.409 33.9876 418.556 34.9832Q418.704 35.9788 418.803 36.9804Q418.901 37.982 418.951 38.9873Q419 39.9925 419 40.999L419 376.001Q419 377.007 418.951 378.013Q418.901 379.018 418.803 380.02Q418.704 381.021 418.556 382.017Q418.409 383.012 418.212 383.999Q418.016 384.987 417.771 385.963Q417.527 386.939 417.235 387.902Q416.942 388.865 416.603 389.813Q416.264 390.761 415.879 391.691Q415.494 392.62 415.064 393.53Q414.633 394.44 414.159 395.328Q413.684 396.215 413.167 397.079Q412.65 397.942 412.09 398.779Q411.531 399.616 410.932 400.424Q410.332 401.232 409.694 402.01Q409.055 402.788 408.379 403.534Q407.703 404.28 406.992 404.992Q406.28 405.703 405.534 406.379Q404.789 407.055 404.011 407.694Q403.232 408.332 402.424 408.932Q401.616 409.531 400.779 410.09Q399.942 410.65 399.079 411.167Q398.215 411.684 397.328 412.159Q396.44 412.633 395.53 413.064Q394.62 413.494 393.691 413.879Q392.761 414.264 391.813 414.603Q390.865 414.942 389.902 415.235Q388.939 415.527 387.963 415.771Q386.987 416.016 385.999 416.212Q385.012 416.409 384.017 416.556Q383.021 416.704 382.02 416.803Q381.018 416.901 380.013 416.951Q379.007 417 378.001 417L40.999 417Q39.9925 417 38.9873 416.951Q37.982 416.901 36.9804 416.803Q35.9788 416.704 34.9832 416.556Q33.9876 416.408 33.0005 416.212Q32.0134 416.016 31.0371 415.771Q30.0607 415.527 29.0976 415.235Q28.1345 414.942 27.1868 414.603Q26.2392 414.264 25.3094 413.879Q24.3795 413.494 23.4697 413.064Q22.5598 412.633 21.6722 412.159Q20.7846 411.684 19.9213 411.167Q19.058 410.65 18.2212 410.09Q17.3843 409.531 16.5759 408.932Q15.7675 408.332 14.9895 407.694Q14.2115 407.055 13.4658 406.379Q12.72 405.703 12.0083 404.992Q11.2966 404.28 10.6207 403.534Q9.94484 402.788 9.30634 402.01Q8.66785 401.232 8.06829 400.424Q7.46874 399.616 6.90958 398.779Q6.35041 397.942 5.83298 397.079Q5.31556 396.215 4.84111 395.328Q4.36666 394.44 3.93634 393.53Q3.50602 392.62 3.12086 391.691Q2.7357 390.761 2.39663 389.813Q2.05757 388.865 1.7654 387.902Q1.47324 386.939 1.22869 385.963Q0.984137 384.987 0.787784 383.999Q0.591432 383.012 0.443752 382.017Q0.296073 381.021 0.197421 380.02Q0.0987702 379.018 0.0493851 378.013Q0 377.007 0 376.001L0 40.999Q0 39.9925 0.0493851 38.9873Q0.0987702 37.982 0.197421 36.9804Q0.296073 35.9788 0.443752 34.9832Q0.591432 33.9876 0.787784 33.0005Q0.984137 32.0134 1.22869 31.0371Q1.47324 30.0607 1.7654 29.0976Q2.05757 28.1345 2.39663 27.1868Q2.7357 26.2392 3.12086 25.3094Q3.50602 24.3795 3.93634 23.4697Q4.36666 22.5598 4.84111 21.6722Q5.31556 20.7846 5.83298 19.9213Q6.35041 19.058 6.90958 18.2212Q7.46874 17.3843 8.06829 16.5759Q8.66785 15.7675 9.30634 14.9895Q9.94484 14.2115 10.6207 13.4658Q11.2966 12.72 12.0083 12.0083Q12.72 11.2966 13.4658 10.6207Q14.2115 9.94484 14.9895 9.30634Q15.7675 8.66785 16.5759 8.06829Q17.3843 7.46874 18.2212 6.90958Q19.058 6.35041 19.9213 5.83298Q20.7846 5.31556 21.6722 4.84111Q22.5598 4.36666 23.4697 3.93634Q24.3795 3.50602 25.3094 3.12086Q26.2392 2.7357 27.1868 2.39663Q28.1345 2.05757 29.0976 1.7654Q30.0607 1.47324 31.0371 1.22869Q32.0134 0.984137 33.0005 0.787784Q33.9876 0.591432 34.9832 0.443752Q35.9788 0.296073 36.9804 0.197421Q37.982 0.0987702 38.9873 0.0493851Q39.9925 0 40.999 0Z" id="Background" fill="none" stroke="none" />
    <g id="Group" transform="matrix(0.1 0 0 -0.1 8.661572 417)">
      <path d="M1403.79 3998.77C1553.79 4047.77 1659.79 4071.77 1808.79 4089.77C1863.79 4096.77 1969.79 4102.77 2044.79 4103.77C2957.79 4111.77 3776.79 3494.77 4026.79 2609.77C4168.79 2103.77 4111.79 1557.77 3868.79 1096.77C3347.79 112.768 2150.79 -278.232 1148.79 209.768C619.788 466.768 230.788 933.768 74.788 1501.77C-217.212 2555.77 370.788 3659.77 1403.79 3998.77ZM2733.79 3429.77C2561.79 3515.77 2371.79 3566.77 2158.79 3584.77C2092.79 3589.77 2034.79 3593.77 2028.79 3592.77C2023.79 3591.77 1996.79 3589.77 1968.79 3587.77C1691.79 3569.77 1438.79 3487.77 1218.79 3344.77C864.789 3112.77 632.789 2772.77 541.789 2350.77C511.789 2213.77 509.789 1904.77 536.789 1774.77C642.789 1275.77 933.789 891.769 1368.79 675.769C1499.79 610.769 1629.79 565.769 1768.79 537.769C1896.79 512.769 2201.79 512.769 2333.79 537.769C2814.79 631.769 3222.79 943.769 3433.79 1379.77C3801.79 2140.77 3491.79 3048.77 2733.79 3429.77Z" id="Shape" fill="#FFFFFF" fill-rule="evenodd" stroke="none" />
      <path d="M402 1698.69C404 1735.69 412 1773.69 419 1782.69C426 1791.69 443 1798.69 456 1798.69C492 1798.69 510 1762.69 510 1692.69L510 1630.69L563 1624.69C635 1615.69 716 1576.69 769 1525.69C817 1479.69 870 1379.69 870 1335.69C870 1271.69 826 1229.69 759 1228.69C704 1228.69 683 1247.69 647 1328.69C622 1383.69 585 1425.69 543 1447.69C531 1453.69 519 1458.69 515 1458.69C512 1458.69 511 1376.69 512 1277.69L515 1095.69L611 1063.69C764 1013.69 833 959.69 883 850.69C901 812.69 905 784.69 905 708.69C905 621.69 902 607.69 873 547.69C815 430.69 707 351.69 570 326.69L510 314.69L510 178.69C510 25.6898 500 -5.31018 452 0.689819C410 5.68982 400 38.6898 400 183.69L400 313.69L338 325.69C153 360.69 0 516.69 0 669.69C0 722.69 3 728.69 35 757.69C75 792.69 122 798.69 169 774.69C191 762.69 203 741.69 225 682.69C242 636.69 268 589.69 288 566.69C322 528.69 367 498.69 390 498.69C396 498.69 400 566.69 400 701.69L400 903.69L325 927.69C115 993.69 15 1122.69 34 1301.69C44 1401.69 66 1453.69 124 1512.69C182 1572.69 247 1605.69 336 1620.69L398 1631.69L402 1698.69ZM575 507.69C728 577.69 737 763.69 590 838.69C571 847.69 545 859.69 533 862.69L510 869.69L510 679.69C510 533.69 513 488.69 523 488.69C529 488.69 553 497.69 575 507.69ZM400 1293.69C400 1202.69 397 1128.69 393 1128.69C368 1128.69 278 1193.69 264 1220.69C242 1262.69 243 1338.69 266 1376.69C283 1405.69 361 1457.69 388 1458.69C397 1458.69 400 1418.69 400 1293.69Z" transform="translate(1593.789 1046.079)" id="Shape" fill="#FFFFFF" fill-rule="evenodd" stroke="none" />
      <path d="M454.235 780.014C228.235 683.014 34.2347 597.014 21.2347 590.014C-0.765259 578.014 -1.76526 573.014 1.23474 476.014L4.23474 375.014L434.235 187.014C671.235 84.0137 867.235 0.0136719 872.235 0.0136719C876.235 -0.986328 879.235 53.0137 879.235 120.014L879.235 240.014L847.235 253.014C829.235 260.014 691.235 315.014 540.235 374.014L267.235 482.014L570.235 598.014L874.235 715.014L877.235 837.014C878.235 904.014 876.235 959.014 872.235 959.014C868.235 959.014 680.235 878.014 454.235 780.014L454.235 780.014Z" transform="translate(554.5538 1535.755)" id="Shape" fill="#FFFFFF" stroke="none" />
      <path d="M0 848L0 728L153 668C236 636 374 583 458 550C542 518 607 489 603 485C598 481 463 426 302 362C140 299 6 246 4 243C1 241 1 185 2 120L5 0L442 191L880 381L880 486L880 591L456 773C224 873 26 958 17 962C2 967 0 956 0 848L0 848Z" transform="translate(2663.789 1528.769)" id="Shape" fill="#FFFFFF" stroke="none" />
    </g>
  </g>
</svg>